<?xml version="1.0" encoding="UTF-8" standalone="no"?>
<!DOCTYPE svg PUBLIC "-//W3C//DTD SVG 1.1//EN"
 "http://www.w3.org/Graphics/SVG/1.1/DTD/svg11.dtd">
<!-- Generated by graphviz version 5.0.0 (20220707.1540)
 -->
<!-- Title: dependencies Pages: 1 -->
<svg width="868pt" height="174pt"
 viewBox="0.00 0.00 868.00 173.80" xmlns="http://www.w3.org/2000/svg" xmlns:xlink="http://www.w3.org/1999/xlink">
<g id="graph0" class="graph" transform="scale(1 1) rotate(0) translate(4 169.8)">
<title>dependencies</title>
<polygon fill="white" stroke="transparent" points="-4,4 -4,-169.8 864,-169.8 864,4 -4,4"/>
<text text-anchor="middle" x="430" y="-8.2" font-family="sans-serif" font-size="14.00">dependencies</text>
<g id="clust1" class="cluster">
<title>cluster_BookingsModule</title>
<polygon fill="none" stroke="black" stroke-dasharray="1,5" points="8,-32.8 8,-157.8 852,-157.8 852,-32.8 8,-32.8"/>
</g>
<g id="clust3" class="cluster">
<title>cluster_BookingsModule_imports</title>
<polygon fill="none" stroke="black" points="730,-40.8 730,-92.8 844,-92.8 844,-40.8 730,-40.8"/>
</g>
<g id="clust6" class="cluster">
<title>cluster_BookingsModule_providers</title>
<polygon fill="none" stroke="black" points="16,-40.8 16,-92.8 722,-92.8 722,-40.8 16,-40.8"/>
</g>
<!-- ConfigModule -->
<g id="node1" class="node">
<title>ConfigModule</title>
<polygon fill="#8dd3c7" stroke="black" points="836.44,-84.8 833.44,-88.8 812.44,-88.8 809.44,-84.8 737.56,-84.8 737.56,-48.8 836.44,-48.8 836.44,-84.8"/>
<text text-anchor="middle" x="787" y="-62.6" font-family="Times,serif" font-size="14.00">ConfigModule</text>
</g>
<!-- BookingsModule -->
<g id="node2" class="node">
<title>BookingsModule</title>
<polygon fill="#8dd3c7" stroke="black" points="518.73,-149.8 515.73,-153.8 494.73,-153.8 491.73,-149.8 405.27,-149.8 405.27,-113.8 518.73,-113.8 518.73,-149.8"/>
<text text-anchor="middle" x="462" y="-127.6" font-family="Times,serif" font-size="14.00">BookingsModule</text>
</g>
<!-- ConfigModule&#45;&gt;BookingsModule -->
<g id="edge1" class="edge">
<title>ConfigModule&#45;&gt;BookingsModule</title>
<path fill="none" stroke="black" d="M787,-84.91C787,-104.14 787,-131.8 787,-131.8 787,-131.8 528.98,-131.8 528.98,-131.8"/>
<polygon fill="black" stroke="black" points="528.98,-128.3 518.98,-131.8 528.98,-135.3 528.98,-128.3"/>
</g>
<!-- BookingAvailableValidator -->
<g id="node3" class="node">
<title>BookingAvailableValidator</title>
<ellipse fill="#fdb462" stroke="black" cx="596" cy="-66.8" rx="118.12" ry="18"/>
<text text-anchor="middle" x="596" y="-62.6" font-family="Times,serif" font-size="14.00">BookingAvailableValidator</text>
</g>
<!-- BookingAvailableValidator&#45;&gt;BookingsModule -->
<g id="edge2" class="edge">
<title>BookingAvailableValidator&#45;&gt;BookingsModule</title>
<path fill="none" stroke="black" d="M498.15,-76.96C498.15,-76.96 498.15,-103.61 498.15,-103.61"/>
<polygon fill="black" stroke="black" points="494.65,-103.61 498.15,-113.61 501.65,-103.61 494.65,-103.61"/>
</g>
<!-- HereHotelDataProviderService -->
<g id="node4" class="node">
<title>HereHotelDataProviderService</title>
<ellipse fill="#fdb462" stroke="black" cx="328" cy="-66.8" rx="131.89" ry="18"/>
<text text-anchor="middle" x="328" y="-62.6" font-family="Times,serif" font-size="14.00">HereHotelDataProviderService</text>
</g>
<!-- HereHotelDataProviderService&#45;&gt;BookingsModule -->
<g id="edge3" class="edge">
<title>HereHotelDataProviderService&#45;&gt;BookingsModule</title>
<path fill="none" stroke="black" d="M432.54,-77.83C432.54,-77.83 432.54,-103.58 432.54,-103.58"/>
<polygon fill="black" stroke="black" points="429.04,-103.58 432.54,-113.58 436.04,-103.58 429.04,-103.58"/>
</g>
<!-- HotelIdValidator -->
<g id="node5" class="node">
<title>HotelIdValidator</title>
<ellipse fill="#fdb462" stroke="black" cx="101" cy="-66.8" rx="77.01" ry="18"/>
<text text-anchor="middle" x="101" y="-62.6" font-family="Times,serif" font-size="14.00">HotelIdValidator</text>
</g>
<!-- HotelIdValidator&#45;&gt;BookingsModule -->
<g id="edge4" class="edge">
<title>HotelIdValidator&#45;&gt;BookingsModule</title>
<path fill="none" stroke="black" d="M101,-84.91C101,-104.14 101,-131.8 101,-131.8 101,-131.8 395.2,-131.8 395.2,-131.8"/>
<polygon fill="black" stroke="black" points="395.2,-135.3 405.2,-131.8 395.2,-128.3 395.2,-135.3"/>
</g>
</g>
</svg>
