<?xml version="1.0" encoding="UTF-8" standalone="no"?>
<!DOCTYPE svg PUBLIC "-//W3C//DTD SVG 1.1//EN"
 "http://www.w3.org/Graphics/SVG/1.1/DTD/svg11.dtd">
<!-- Generated by graphviz version 5.0.0 (20220707.1540)
 -->
<!-- Title: dependencies Pages: 1 -->
<svg width="158pt" height="247pt"
 viewBox="0.00 0.00 158.00 246.80" xmlns="http://www.w3.org/2000/svg" xmlns:xlink="http://www.w3.org/1999/xlink">
<g id="graph0" class="graph" transform="scale(1 1) rotate(0) translate(4 242.8)">
<title>dependencies</title>
<polygon fill="white" stroke="transparent" points="-4,4 -4,-242.8 154,-242.8 154,4 -4,4"/>
<text text-anchor="middle" x="75" y="-8.2" font-family="sans-serif" font-size="14.00">dependencies</text>
<g id="clust1" class="cluster">
<title>cluster_GlobalModule</title>
<polygon fill="none" stroke="black" stroke-dasharray="1,5" points="8,-32.8 8,-230.8 142,-230.8 142,-32.8 8,-32.8"/>
</g>
<g id="clust4" class="cluster">
<title>cluster_GlobalModule_exports</title>
<polygon fill="none" stroke="black" points="16,-170.8 16,-222.8 134,-222.8 134,-170.8 16,-170.8"/>
</g>
<g id="clust3" class="cluster">
<title>cluster_GlobalModule_imports</title>
<polygon fill="none" stroke="black" points="18,-40.8 18,-92.8 132,-92.8 132,-40.8 18,-40.8"/>
</g>
<!-- ConfigModule -->
<g id="node1" class="node">
<title>ConfigModule</title>
<polygon fill="#8dd3c7" stroke="black" points="124.44,-84.8 121.44,-88.8 100.44,-88.8 97.44,-84.8 25.56,-84.8 25.56,-48.8 124.44,-48.8 124.44,-84.8"/>
<text text-anchor="middle" x="75" y="-62.6" font-family="Times,serif" font-size="14.00">ConfigModule</text>
</g>
<!-- GlobalModule -->
<g id="node2" class="node">
<title>GlobalModule</title>
<polygon fill="#8dd3c7" stroke="black" points="123.66,-149.8 120.66,-153.8 99.66,-153.8 96.66,-149.8 26.34,-149.8 26.34,-113.8 123.66,-113.8 123.66,-149.8"/>
<text text-anchor="middle" x="75" y="-127.6" font-family="Times,serif" font-size="14.00">GlobalModule</text>
</g>
<!-- ConfigModule&#45;&gt;GlobalModule -->
<g id="edge1" class="edge">
<title>ConfigModule&#45;&gt;GlobalModule</title>
<path fill="none" stroke="black" d="M75,-84.91C75,-84.91 75,-103.79 75,-103.79"/>
<polygon fill="black" stroke="black" points="71.5,-103.79 75,-113.79 78.5,-103.79 71.5,-103.79"/>
</g>
<!-- ConfigModule  -->
<g id="node3" class="node">
<title>ConfigModule </title>
<polygon fill="#fb8072" stroke="black" points="125.94,-214.8 24.06,-214.8 24.06,-178.8 125.94,-178.8 125.94,-214.8"/>
<text text-anchor="middle" x="75" y="-192.6" font-family="Times,serif" font-size="14.00">ConfigModule </text>
</g>
<!-- GlobalModule&#45;&gt;ConfigModule  -->
<g id="edge2" class="edge">
<title>GlobalModule&#45;&gt;ConfigModule </title>
<path fill="none" stroke="black" stroke-dasharray="5,2" d="M75,-149.91C75,-149.91 75,-168.79 75,-168.79"/>
<polygon fill="black" stroke="black" points="71.5,-168.79 75,-178.79 78.5,-168.79 71.5,-168.79"/>
</g>
</g>
</svg>
