<?xml version="1.0" encoding="UTF-8" standalone="no"?>
<!DOCTYPE svg PUBLIC "-//W3C//DTD SVG 1.1//EN"
 "http://www.w3.org/Graphics/SVG/1.1/DTD/svg11.dtd">
<!-- Generated by graphviz version 5.0.0 (20220707.1540)
 -->
<!-- Title: dependencies Pages: 1 -->
<svg width="1200pt" height="261pt"
 viewBox="0.00 0.00 1200.00 260.80" xmlns="http://www.w3.org/2000/svg" xmlns:xlink="http://www.w3.org/1999/xlink">
<g id="graph0" class="graph" transform="scale(1 1) rotate(0) translate(4 256.8)">
<title>dependencies</title>
<polygon fill="white" stroke="transparent" points="-4,4 -4,-256.8 1196,-256.8 1196,4 -4,4"/>
<text text-anchor="middle" x="596" y="-8.2" font-family="sans-serif" font-size="14.00">dependencies</text>
<g id="clust1" class="cluster">
<title>cluster_AppModule</title>
<polygon fill="none" stroke="black" stroke-dasharray="1,5" points="738,-32.8 738,-236.8 896,-236.8 896,-32.8 738,-32.8"/>
</g>
<g id="clust3" class="cluster">
<title>cluster_AppModule_imports</title>
<polygon fill="none" stroke="black" points="746,-40.8 746,-168.8 876,-168.8 876,-40.8 746,-40.8"/>
</g>
<g id="clust7" class="cluster">
<title>cluster_BookingsModule</title>
<polygon fill="none" stroke="black" stroke-dasharray="1,5" points="8,-32.8 8,-100.8 730,-100.8 730,-32.8 8,-32.8"/>
</g>
<g id="clust12" class="cluster">
<title>cluster_BookingsModule_providers</title>
<polygon fill="none" stroke="black" points="16,-40.8 16,-92.8 722,-92.8 722,-40.8 16,-40.8"/>
</g>
<g id="clust13" class="cluster">
<title>cluster_ConfigModule</title>
<polygon fill="none" stroke="black" stroke-dasharray="1,5" points="904,-108.8 904,-176.8 1042,-176.8 1042,-108.8 904,-108.8"/>
</g>
<g id="clust16" class="cluster">
<title>cluster_ConfigModule_exports</title>
<polygon fill="none" stroke="black" points="912,-116.8 912,-168.8 1034,-168.8 1034,-116.8 912,-116.8"/>
</g>
<g id="clust19" class="cluster">
<title>cluster_GlobalModule</title>
<polygon fill="none" stroke="black" stroke-dasharray="1,5" points="1050,-116.8 1050,-244.8 1184,-244.8 1184,-116.8 1050,-116.8"/>
</g>
<g id="clust22" class="cluster">
<title>cluster_GlobalModule_exports</title>
<polygon fill="none" stroke="black" points="1058,-184.8 1058,-236.8 1176,-236.8 1176,-184.8 1058,-184.8"/>
</g>
<!-- BookingsModule -->
<g id="node1" class="node">
<title>BookingsModule</title>
<polygon fill="#8dd3c7" stroke="black" points="867.73,-160.8 864.73,-164.8 843.73,-164.8 840.73,-160.8 754.27,-160.8 754.27,-124.8 867.73,-124.8 867.73,-160.8"/>
<text text-anchor="middle" x="811" y="-138.6" font-family="Times,serif" font-size="14.00">BookingsModule</text>
</g>
<!-- AppModule -->
<g id="node3" class="node">
<title>AppModule</title>
<polygon fill="#8dd3c7" stroke="black" points="869.66,-228.8 866.66,-232.8 845.66,-232.8 842.66,-228.8 786.34,-228.8 786.34,-192.8 869.66,-192.8 869.66,-228.8"/>
<text text-anchor="middle" x="828" y="-206.6" font-family="Times,serif" font-size="14.00">AppModule</text>
</g>
<!-- BookingsModule&#45;&gt;AppModule -->
<g id="edge1" class="edge">
<title>BookingsModule&#45;&gt;AppModule</title>
<path fill="none" stroke="black" d="M826.89,-161.02C826.89,-161.02 826.89,-182.53 826.89,-182.53"/>
<polygon fill="black" stroke="black" points="823.39,-182.53 826.89,-192.53 830.39,-182.53 823.39,-182.53"/>
</g>
<!-- ConfigModule -->
<g id="node2" class="node">
<title>ConfigModule</title>
<polygon fill="#8dd3c7" stroke="black" points="868.44,-84.8 865.44,-88.8 844.44,-88.8 841.44,-84.8 769.56,-84.8 769.56,-48.8 868.44,-48.8 868.44,-84.8"/>
<text text-anchor="middle" x="819" y="-62.6" font-family="Times,serif" font-size="14.00">ConfigModule</text>
</g>
<!-- ConfigModule&#45;&gt;BookingsModule -->
<g id="edge3" class="edge">
<title>ConfigModule&#45;&gt;BookingsModule</title>
<path fill="none" stroke="black" d="M818.7,-84.81C818.7,-84.81 818.7,-114.65 818.7,-114.65"/>
<polygon fill="black" stroke="black" points="815.2,-114.65 818.7,-124.65 822.2,-114.65 815.2,-114.65"/>
</g>
<!-- ConfigModule&#45;&gt;AppModule -->
<g id="edge2" class="edge">
<title>ConfigModule&#45;&gt;AppModule</title>
<path fill="none" stroke="black" d="M868.52,-75.8C883.07,-75.8 895.16,-75.8 895.16,-75.8 895.16,-75.8 895.16,-210.8 895.16,-210.8 895.16,-210.8 879.77,-210.8 879.77,-210.8"/>
<polygon fill="black" stroke="black" points="879.77,-207.3 869.77,-210.8 879.77,-214.3 879.77,-207.3"/>
</g>
<!-- IConfigService  -->
<g id="node7" class="node">
<title>IConfigService </title>
<polygon fill="#fb8072" stroke="black" points="1025.53,-160.8 920.47,-160.8 920.47,-124.8 1025.53,-124.8 1025.53,-160.8"/>
<text text-anchor="middle" x="973" y="-138.6" font-family="Times,serif" font-size="14.00">IConfigService </text>
</g>
<!-- ConfigModule&#45;&gt;IConfigService  -->
<g id="edge7" class="edge">
<title>ConfigModule&#45;&gt;IConfigService </title>
<path fill="none" stroke="black" stroke-dasharray="5,2" d="M868.57,-66.8C913.59,-66.8 973,-66.8 973,-66.8 973,-66.8 973,-114.79 973,-114.79"/>
<polygon fill="black" stroke="black" points="969.5,-114.79 973,-124.79 976.5,-114.79 969.5,-114.79"/>
</g>
<!-- GlobalModule -->
<g id="node8" class="node">
<title>GlobalModule</title>
<polygon fill="#8dd3c7" stroke="black" points="1160.66,-160.8 1157.66,-164.8 1136.66,-164.8 1133.66,-160.8 1063.34,-160.8 1063.34,-124.8 1160.66,-124.8 1160.66,-160.8"/>
<text text-anchor="middle" x="1112" y="-138.6" font-family="Times,serif" font-size="14.00">GlobalModule</text>
</g>
<!-- ConfigModule&#45;&gt;GlobalModule -->
<g id="edge8" class="edge">
<title>ConfigModule&#45;&gt;GlobalModule</title>
<path fill="none" stroke="black" d="M868.37,-57.8C951.87,-57.8 1112,-57.8 1112,-57.8 1112,-57.8 1112,-114.77 1112,-114.77"/>
<polygon fill="black" stroke="black" points="1108.5,-114.77 1112,-124.77 1115.5,-114.77 1108.5,-114.77"/>
</g>
<!-- BookingAvailableValidator -->
<g id="node4" class="node">
<title>BookingAvailableValidator</title>
<ellipse fill="#fdb462" stroke="black" cx="596" cy="-66.8" rx="118.12" ry="18"/>
<text text-anchor="middle" x="596" y="-62.6" font-family="Times,serif" font-size="14.00">BookingAvailableValidator</text>
</g>
<!-- BookingAvailableValidator&#45;&gt;BookingsModule -->
<g id="edge4" class="edge">
<title>BookingAvailableValidator&#45;&gt;BookingsModule</title>
<path fill="none" stroke="black" d="M714.49,-66.8C741.33,-66.8 762.08,-66.8 762.08,-66.8 762.08,-66.8 762.08,-114.79 762.08,-114.79"/>
<polygon fill="black" stroke="black" points="758.58,-114.79 762.08,-124.79 765.58,-114.79 758.58,-114.79"/>
</g>
<!-- HereHotelDataProviderService -->
<g id="node5" class="node">
<title>HereHotelDataProviderService</title>
<ellipse fill="#fdb462" stroke="black" cx="328" cy="-66.8" rx="131.89" ry="18"/>
<text text-anchor="middle" x="328" y="-62.6" font-family="Times,serif" font-size="14.00">HereHotelDataProviderService</text>
</g>
<!-- HereHotelDataProviderService&#45;&gt;BookingsModule -->
<g id="edge5" class="edge">
<title>HereHotelDataProviderService&#45;&gt;BookingsModule</title>
<path fill="none" stroke="black" d="M328,-84.83C328,-105.57 328,-136.8 328,-136.8 328,-136.8 744.17,-136.8 744.17,-136.8"/>
<polygon fill="black" stroke="black" points="744.17,-140.3 754.17,-136.8 744.17,-133.3 744.17,-140.3"/>
</g>
<!-- HotelIdValidator -->
<g id="node6" class="node">
<title>HotelIdValidator</title>
<ellipse fill="#fdb462" stroke="black" cx="101" cy="-66.8" rx="77.01" ry="18"/>
<text text-anchor="middle" x="101" y="-62.6" font-family="Times,serif" font-size="14.00">HotelIdValidator</text>
</g>
<!-- HotelIdValidator&#45;&gt;BookingsModule -->
<g id="edge6" class="edge">
<title>HotelIdValidator&#45;&gt;BookingsModule</title>
<path fill="none" stroke="black" d="M101,-85C101,-109.16 101,-148.8 101,-148.8 101,-148.8 744.1,-148.8 744.1,-148.8"/>
<polygon fill="black" stroke="black" points="744.1,-152.3 754.1,-148.8 744.1,-145.3 744.1,-152.3"/>
</g>
<!-- ConfigModule  -->
<g id="node9" class="node">
<title>ConfigModule </title>
<polygon fill="#fb8072" stroke="black" points="1167.94,-228.8 1066.06,-228.8 1066.06,-192.8 1167.94,-192.8 1167.94,-228.8"/>
<text text-anchor="middle" x="1117" y="-206.6" font-family="Times,serif" font-size="14.00">ConfigModule </text>
</g>
<!-- GlobalModule&#45;&gt;ConfigModule  -->
<g id="edge9" class="edge">
<title>GlobalModule&#45;&gt;ConfigModule </title>
<path fill="none" stroke="black" stroke-dasharray="5,2" d="M1113.43,-161.02C1113.43,-161.02 1113.43,-182.53 1113.43,-182.53"/>
<polygon fill="black" stroke="black" points="1109.93,-182.53 1113.43,-192.53 1116.93,-182.53 1109.93,-182.53"/>
</g>
</g>
</svg>
