<?xml version="1.0" encoding="UTF-8" standalone="no"?>
<!DOCTYPE svg PUBLIC "-//W3C//DTD SVG 1.1//EN"
 "http://www.w3.org/Graphics/SVG/1.1/DTD/svg11.dtd">
<!-- Generated by graphviz version 5.0.0 (20220707.1540)
 -->
<!-- Title: dependencies Pages: 1 -->
<svg width="286pt" height="174pt"
 viewBox="0.00 0.00 286.00 173.80" xmlns="http://www.w3.org/2000/svg" xmlns:xlink="http://www.w3.org/1999/xlink">
<g id="graph0" class="graph" transform="scale(1 1) rotate(0) translate(4 169.8)">
<title>dependencies</title>
<polygon fill="white" stroke="transparent" points="-4,4 -4,-169.8 282,-169.8 282,4 -4,4"/>
<text text-anchor="middle" x="139" y="-8.2" font-family="sans-serif" font-size="14.00">dependencies</text>
<g id="clust1" class="cluster">
<title>cluster_AppModule</title>
<polygon fill="none" stroke="black" stroke-dasharray="1,5" points="8,-32.8 8,-157.8 270,-157.8 270,-32.8 8,-32.8"/>
</g>
<g id="clust3" class="cluster">
<title>cluster_AppModule_imports</title>
<polygon fill="none" stroke="black" points="16,-40.8 16,-92.8 262,-92.8 262,-40.8 16,-40.8"/>
</g>
<!-- BookingsModule -->
<g id="node1" class="node">
<title>BookingsModule</title>
<polygon fill="#8dd3c7" stroke="black" points="253.73,-84.8 250.73,-88.8 229.73,-88.8 226.73,-84.8 140.27,-84.8 140.27,-48.8 253.73,-48.8 253.73,-84.8"/>
<text text-anchor="middle" x="197" y="-62.6" font-family="Times,serif" font-size="14.00">BookingsModule</text>
</g>
<!-- AppModule -->
<g id="node3" class="node">
<title>AppModule</title>
<polygon fill="#8dd3c7" stroke="black" points="176.66,-149.8 173.66,-153.8 152.66,-153.8 149.66,-149.8 93.34,-149.8 93.34,-113.8 176.66,-113.8 176.66,-149.8"/>
<text text-anchor="middle" x="135" y="-127.6" font-family="Times,serif" font-size="14.00">AppModule</text>
</g>
<!-- BookingsModule&#45;&gt;AppModule -->
<g id="edge1" class="edge">
<title>BookingsModule&#45;&gt;AppModule</title>
<path fill="none" stroke="black" d="M158.61,-84.91C158.61,-84.91 158.61,-103.79 158.61,-103.79"/>
<polygon fill="black" stroke="black" points="155.11,-103.79 158.61,-113.79 162.11,-103.79 155.11,-103.79"/>
</g>
<!-- ConfigModule -->
<g id="node2" class="node">
<title>ConfigModule</title>
<polygon fill="#8dd3c7" stroke="black" points="122.44,-84.8 119.44,-88.8 98.44,-88.8 95.44,-84.8 23.56,-84.8 23.56,-48.8 122.44,-48.8 122.44,-84.8"/>
<text text-anchor="middle" x="73" y="-62.6" font-family="Times,serif" font-size="14.00">ConfigModule</text>
</g>
<!-- ConfigModule&#45;&gt;AppModule -->
<g id="edge2" class="edge">
<title>ConfigModule&#45;&gt;AppModule</title>
<path fill="none" stroke="black" d="M107.69,-84.91C107.69,-84.91 107.69,-103.79 107.69,-103.79"/>
<polygon fill="black" stroke="black" points="104.19,-103.79 107.69,-113.79 111.19,-103.79 104.19,-103.79"/>
</g>
</g>
</svg>
